<svg width="1145" height="196" viewBox="0 0 1145 196" fill="none" xmlns="http://www.w3.org/2000/svg">
<mask id="path-1-outside-1_588_3" maskUnits="userSpaceOnUse" x="0" y="0" width="1145" height="196" fill="black">
<rect fill="white" width="1145" height="196"/>
<path d="M53.271 192L1.95709 10.1818H37.3797L70.1389 143.793H71.8257L106.804 10.1818H139.031L174.098 143.882H175.696L208.456 10.1818H243.878L192.564 192H160.071L123.672 64.4254H122.252L85.7639 192H53.271ZM265.056 192V55.6364H297.194V192H265.056ZM281.214 36.2827C276.124 36.2827 271.744 34.5959 268.075 31.2223C264.405 27.7895 262.57 23.6761 262.57 18.8821C262.57 14.0289 264.405 9.91547 268.075 6.54189C271.744 3.10913 276.124 1.39275 281.214 1.39275C286.363 1.39275 290.743 3.10913 294.353 6.54189C298.022 9.91547 299.857 14.0289 299.857 18.8821C299.857 23.6761 298.022 27.7895 294.353 31.2223C290.743 34.5959 286.363 36.2827 281.214 36.2827ZM328.226 192V171.581L398.539 83.424V82.2699H330.534V55.6364H437.867V77.5646L370.928 164.212V165.366H440.176V192H328.226ZM509.383 194.752C500.741 194.752 492.959 193.213 486.034 190.136C479.168 186.999 473.723 182.382 469.699 176.286C465.733 170.19 463.75 162.674 463.75 153.737C463.75 146.042 465.171 139.68 468.012 134.649C470.853 129.618 474.729 125.594 479.642 122.575C484.554 119.557 490.088 117.278 496.243 115.739C502.458 114.141 508.879 112.987 515.508 112.277C523.498 111.448 529.979 110.709 534.951 110.058C539.922 109.347 543.533 108.282 545.782 106.862C548.09 105.382 549.244 103.103 549.244 100.026V99.4929C549.244 92.8049 547.261 87.6262 543.296 83.9567C539.33 80.2872 533.619 78.4524 526.162 78.4524C518.29 78.4524 512.046 80.1688 507.429 83.6016C502.872 87.0343 499.794 91.0885 498.196 95.7642L468.189 91.5028C470.557 83.2169 474.463 76.2921 479.908 70.7287C485.353 65.1061 492.012 60.9039 499.883 58.1222C507.755 55.2812 516.455 53.8608 525.984 53.8608C532.554 53.8608 539.094 54.6302 545.604 56.169C552.115 57.7079 558.063 60.2528 563.449 63.804C568.834 67.2959 573.155 72.0604 576.41 78.0973C579.725 84.1342 581.382 91.6804 581.382 100.736V192H550.487V173.268H549.422C547.468 177.056 544.716 180.607 541.165 183.921C537.673 187.176 533.264 189.81 527.937 191.822C522.67 193.776 516.485 194.752 509.383 194.752ZM517.728 171.137C524.179 171.137 529.772 169.865 534.507 167.32C539.242 164.715 542.882 161.283 545.427 157.021C548.031 152.76 549.333 148.114 549.333 143.083V127.014C548.327 127.843 546.61 128.612 544.184 129.322C541.816 130.033 539.153 130.654 536.194 131.187C533.234 131.719 530.305 132.193 527.405 132.607C524.504 133.022 521.989 133.377 519.858 133.673C515.064 134.324 510.773 135.389 506.985 136.869C503.198 138.348 500.209 140.42 498.019 143.083C495.829 145.687 494.734 149.061 494.734 153.204C494.734 159.122 496.894 163.591 501.215 166.609C505.535 169.628 511.04 171.137 517.728 171.137ZM613.457 192V55.6364H644.618V78.3636H646.039C648.525 70.492 652.786 64.4254 658.823 60.1641C664.919 55.8435 671.873 53.6832 679.686 53.6832C681.461 53.6832 683.444 53.772 685.634 53.9496C687.883 54.0679 689.747 54.2751 691.227 54.571V84.1342C689.866 83.6607 687.705 83.2464 684.746 82.8913C681.846 82.477 679.035 82.2699 676.312 82.2699C670.453 82.2699 665.185 83.5424 660.51 86.0874C655.893 88.5731 652.253 92.0355 649.59 96.4744C646.927 100.913 645.595 106.033 645.595 111.833V192H613.457ZM757.327 194.397C746.614 194.397 737.026 191.645 728.562 186.141C720.099 180.636 713.411 172.646 708.499 162.17C703.586 151.695 701.13 138.97 701.13 123.996C701.13 108.844 703.616 96.0601 708.587 85.6435C713.618 75.1676 720.395 67.2663 728.918 61.9396C737.44 56.5537 746.94 53.8608 757.415 53.8608C765.406 53.8608 771.975 55.2221 777.124 57.9446C782.273 60.6079 786.357 63.8336 789.376 67.6214C792.394 71.3501 794.732 74.8717 796.389 78.1861H797.721V10.1818H829.947V192H798.342V170.516H796.389C794.732 173.83 792.335 177.352 789.198 181.08C786.061 184.75 781.918 187.887 776.769 190.491C771.62 193.095 765.139 194.397 757.327 194.397ZM766.293 168.03C773.1 168.03 778.9 166.195 783.694 162.526C788.488 158.797 792.128 153.618 794.614 146.989C797.099 140.361 798.342 132.637 798.342 123.818C798.342 115 797.099 107.335 794.614 100.825C792.187 94.3142 788.577 89.2538 783.783 85.6435C779.048 82.0331 773.218 80.228 766.293 80.228C759.132 80.228 753.154 82.0923 748.36 85.821C743.566 89.5497 739.956 94.6989 737.529 101.268C735.102 107.838 733.889 115.355 733.889 123.818C733.889 132.341 735.102 139.946 737.529 146.634C740.015 153.263 743.655 158.501 748.449 162.348C753.302 166.136 759.25 168.03 766.293 168.03ZM1041.76 10.1818H1074.7V128.967C1074.7 141.988 1071.62 153.441 1065.46 163.325C1059.37 173.209 1050.78 180.932 1039.72 186.496C1028.65 192 1015.72 194.752 1000.92 194.752C986.065 194.752 973.104 192 962.036 186.496C950.968 180.932 942.386 173.209 936.29 163.325C930.194 153.441 927.146 141.988 927.146 128.967V10.1818H960.083V126.215C960.083 133.791 961.74 140.538 965.054 146.457C968.428 152.375 973.163 157.021 979.259 160.395C985.355 163.709 992.576 165.366 1000.92 165.366C1009.27 165.366 1016.49 163.709 1022.58 160.395C1028.74 157.021 1033.47 152.375 1036.79 146.457C1040.1 140.538 1041.76 133.791 1041.76 126.215V10.1818ZM1143.19 10.1818V192H1110.26V10.1818H1143.19Z"/>
</mask>
<path d="M53.271 192L52.3086 192.272L52.5142 193H53.271V192ZM1.95709 10.1818V9.18181H0.635803L0.994687 10.4534L1.95709 10.1818ZM37.3797 10.1818L38.3509 9.94368L38.1641 9.18181H37.3797V10.1818ZM70.1389 143.793L69.1677 144.031L69.3545 144.793H70.1389V143.793ZM71.8257 143.793V144.793H72.5976L72.7931 144.047L71.8257 143.793ZM106.804 10.1818V9.18181H106.032L105.837 9.92855L106.804 10.1818ZM139.031 10.1818L139.998 9.92811L139.803 9.18181H139.031V10.1818ZM174.098 143.882L173.131 144.136L173.327 144.882H174.098V143.882ZM175.696 143.882V144.882H176.481L176.668 144.12L175.696 143.882ZM208.456 10.1818V9.18181H207.671L207.484 9.94383L208.456 10.1818ZM243.878 10.1818L244.841 10.4534L245.2 9.18181H243.878V10.1818ZM192.564 192V193H193.321L193.527 192.272L192.564 192ZM160.071 192L159.11 192.274L159.317 193H160.071V192ZM123.672 64.4254L124.634 64.1511L124.427 63.4254H123.672V64.4254ZM122.252 64.4254V63.4254H121.498L121.29 64.1504L122.252 64.4254ZM85.7639 192V193H86.518L86.7254 192.275L85.7639 192ZM54.2334 191.728L2.9195 9.9102L0.994687 10.4534L52.3086 192.272L54.2334 191.728ZM1.95709 11.1818H37.3797V9.18181H1.95709V11.1818ZM36.4084 10.4199L69.1677 144.031L71.1101 143.555L38.3509 9.94368L36.4084 10.4199ZM70.1389 144.793H71.8257V142.793H70.1389V144.793ZM72.7931 144.047L107.772 10.4351L105.837 9.92855L70.8583 143.54L72.7931 144.047ZM106.804 11.1818H139.031V9.18181H106.804V11.1818ZM138.064 10.4355L173.131 144.136L175.066 143.628L139.998 9.92811L138.064 10.4355ZM174.098 144.882H175.696V142.882H174.098V144.882ZM176.668 144.12L209.427 10.4198L207.484 9.94383L174.725 143.644L176.668 144.12ZM208.456 11.1818H243.878V9.18181H208.456V11.1818ZM242.916 9.9102L191.602 191.728L193.527 192.272L244.841 10.4534L242.916 9.9102ZM192.564 191H160.071V193H192.564V191ZM161.033 191.726L124.634 64.1511L122.711 64.6998L159.11 192.274L161.033 191.726ZM123.672 63.4254H122.252V65.4254H123.672V63.4254ZM121.29 64.1504L84.8025 191.725L86.7254 192.275L123.213 64.7004L121.29 64.1504ZM85.7639 191H53.271V193H85.7639V191ZM265.056 192H264.056V193H265.056V192ZM265.056 55.6364V54.6364H264.056V55.6364H265.056ZM297.194 55.6364H298.194V54.6364H297.194V55.6364ZM297.194 192V193H298.194V192H297.194ZM268.075 31.2223L267.391 31.9526L267.398 31.9585L268.075 31.2223ZM268.075 6.54189L268.751 7.27809L268.758 7.27216L268.075 6.54189ZM294.353 6.54189L293.664 7.26659L293.67 7.27238L293.676 7.27806L294.353 6.54189ZM294.353 31.2223L295.036 31.953L295.036 31.9526L294.353 31.2223ZM266.056 192V55.6364H264.056V192H266.056ZM265.056 56.6364H297.194V54.6364H265.056V56.6364ZM296.194 55.6364V192H298.194V55.6364H296.194ZM297.194 191H265.056V193H297.194V191ZM281.214 35.2827C276.369 35.2827 272.232 33.6861 268.751 30.4861L267.398 31.9585C271.256 35.5056 275.879 37.2827 281.214 37.2827V35.2827ZM268.758 30.492C265.279 27.2381 263.57 23.3847 263.57 18.8821H261.57C261.57 23.9676 263.531 28.341 267.391 31.9526L268.758 30.492ZM263.57 18.8821C263.57 14.3172 265.281 10.4681 268.751 7.27806L267.398 5.80572C263.529 9.36286 261.57 13.7406 261.57 18.8821H263.57ZM268.758 7.27216C272.239 4.01519 276.374 2.39275 281.214 2.39275V0.39275C275.874 0.39275 271.249 2.20307 267.391 5.81162L268.758 7.27216ZM281.214 2.39275C286.116 2.39275 290.246 4.01705 293.664 7.26659L295.042 5.81719C291.239 2.20121 286.61 0.39275 281.214 0.39275V2.39275ZM293.676 7.27806C297.146 10.4681 298.857 14.3172 298.857 18.8821H300.857C300.857 13.7406 298.899 9.36286 295.03 5.80572L293.676 7.27806ZM298.857 18.8821C298.857 23.3847 297.148 27.2381 293.67 30.492L295.036 31.9526C298.897 28.341 300.857 23.9676 300.857 18.8821H298.857ZM293.67 30.4916C290.254 33.6843 286.121 35.2827 281.214 35.2827V37.2827C286.605 37.2827 291.232 35.5075 295.036 31.953L293.67 30.4916ZM328.226 192H327.226V193H328.226V192ZM328.226 171.581L327.444 170.957L327.226 171.231V171.581H328.226ZM398.539 83.424L399.32 84.0475L399.539 83.774V83.424H398.539ZM398.539 82.2699H399.539V81.2699H398.539V82.2699ZM330.534 82.2699H329.534V83.2699H330.534V82.2699ZM330.534 55.6364V54.6364H329.534V55.6364H330.534ZM437.867 55.6364H438.867V54.6364H437.867V55.6364ZM437.867 77.5646L438.659 78.176L438.867 77.9059V77.5646H437.867ZM370.928 164.212L370.137 163.601L369.928 163.871V164.212H370.928ZM370.928 165.366H369.928V166.366H370.928V165.366ZM440.176 165.366H441.176V164.366H440.176V165.366ZM440.176 192V193H441.176V192H440.176ZM329.226 192V171.581H327.226V192H329.226ZM329.008 172.205L399.32 84.0475L397.757 82.8005L327.444 170.957L329.008 172.205ZM399.539 83.424V82.2699H397.539V83.424H399.539ZM398.539 81.2699H330.534V83.2699H398.539V81.2699ZM331.534 82.2699V55.6364H329.534V82.2699H331.534ZM330.534 56.6364H437.867V54.6364H330.534V56.6364ZM436.867 55.6364V77.5646H438.867V55.6364H436.867ZM437.076 76.9533L370.137 163.601L371.72 164.824L438.659 78.176L437.076 76.9533ZM369.928 164.212V165.366H371.928V164.212H369.928ZM370.928 166.366H440.176V164.366H370.928V166.366ZM439.176 165.366V192H441.176V165.366H439.176ZM440.176 191H328.226V193H440.176V191ZM486.034 190.136L485.618 191.045L485.628 191.049L486.034 190.136ZM469.699 176.286L468.86 176.832L468.864 176.837L469.699 176.286ZM468.012 134.649L467.141 134.157L467.141 134.157L468.012 134.649ZM479.642 122.575L479.118 121.723L479.118 121.723L479.642 122.575ZM496.243 115.739L496.486 116.71L496.492 116.708L496.243 115.739ZM515.508 112.277L515.405 111.282L515.402 111.283L515.508 112.277ZM534.951 110.058L535.081 111.049L535.092 111.047L534.951 110.058ZM545.782 106.862L546.316 107.707L546.321 107.703L545.782 106.862ZM543.296 83.9567L543.975 83.2227L543.975 83.2227L543.296 83.9567ZM507.429 83.6016L506.833 82.7991L506.828 82.8028L507.429 83.6016ZM498.196 95.7642L498.056 96.7543L498.875 96.8706L499.143 96.0876L498.196 95.7642ZM468.189 91.5028L467.228 91.2281L466.913 92.3315L468.049 92.4929L468.189 91.5028ZM479.908 70.7287L480.623 71.4282L480.626 71.4244L479.908 70.7287ZM499.883 58.1222L500.216 59.065L500.223 59.0628L499.883 58.1222ZM563.449 63.804L562.898 64.6389L562.905 64.643L563.449 63.804ZM576.41 78.0973L575.53 78.5719L575.534 78.5786L576.41 78.0973ZM581.382 192V193H582.382V192H581.382ZM550.487 192H549.487V193H550.487V192ZM550.487 173.268H551.487V172.268H550.487V173.268ZM549.422 173.268V172.268H548.812L548.533 172.809L549.422 173.268ZM541.165 183.921L541.847 184.653L541.848 184.652L541.165 183.921ZM527.937 191.822L528.285 192.76L528.291 192.758L527.937 191.822ZM534.507 167.32L534.98 168.2L534.989 168.196L534.507 167.32ZM545.427 157.021L544.573 156.5L544.568 156.509L545.427 157.021ZM549.333 127.014H550.333V124.895L548.697 126.242L549.333 127.014ZM544.184 129.322L543.903 128.363L543.896 128.365L544.184 129.322ZM536.194 131.187L536.371 132.171L536.371 132.171L536.194 131.187ZM519.858 133.673L519.993 134.663L519.996 134.663L519.858 133.673ZM506.985 136.869L506.622 135.937L506.622 135.937L506.985 136.869ZM498.019 143.083L498.784 143.727L498.791 143.718L498.019 143.083ZM501.215 166.609L500.642 167.429L500.642 167.429L501.215 166.609ZM509.383 193.752C500.862 193.752 493.22 192.235 486.44 189.222L485.628 191.049C492.697 194.191 500.621 195.752 509.383 195.752V193.752ZM486.449 189.226C479.748 186.164 474.451 181.67 470.533 175.735L468.864 176.837C472.995 183.095 478.588 187.833 485.618 191.045L486.449 189.226ZM470.537 175.741C466.699 169.841 464.75 162.524 464.75 153.737H462.75C462.75 162.823 464.767 170.539 468.86 176.831L470.537 175.741ZM464.75 153.737C464.75 146.159 466.15 139.98 468.883 135.141L467.141 134.157C464.192 139.38 462.75 145.925 462.75 153.737H464.75ZM468.883 135.141C471.64 130.257 475.398 126.357 480.165 123.427L479.118 121.723C474.061 124.831 470.065 128.979 467.141 134.157L468.883 135.141ZM480.165 123.427C484.982 120.467 490.42 118.226 496.486 116.709L496.001 114.769C489.756 116.33 484.126 118.646 479.118 121.723L480.165 123.427ZM496.492 116.708C502.658 115.122 509.032 113.977 515.615 113.271L515.402 111.283C508.727 111.998 502.257 113.16 495.994 114.771L496.492 116.708ZM515.611 113.272C523.606 112.443 530.096 111.702 535.081 111.049L534.821 109.066C529.862 109.715 523.391 110.454 515.405 111.282L515.611 113.272ZM535.092 111.047C540.101 110.332 543.883 109.243 546.316 107.707L545.248 106.016C543.182 107.321 539.743 108.363 534.809 109.068L535.092 111.047ZM546.321 107.703C548.956 106.015 550.244 103.395 550.244 100.026H548.244C548.244 102.812 547.224 104.749 545.242 106.02L546.321 107.703ZM550.244 100.026V99.4929H548.244V100.026H550.244ZM550.244 99.4929C550.244 92.5974 548.192 87.1249 543.975 83.2227L542.617 84.6906C546.331 88.1274 548.244 93.0125 548.244 99.4929H550.244ZM543.975 83.2227C539.764 79.3263 533.774 77.4524 526.162 77.4524V79.4524C533.464 79.4524 538.896 81.2481 542.617 84.6906L543.975 83.2227ZM526.162 77.4524C518.153 77.4524 511.675 79.1983 506.833 82.7991L508.026 84.404C512.417 81.1393 518.427 79.4524 526.162 79.4524V77.4524ZM506.828 82.8028C502.136 86.3368 498.922 90.5477 497.25 95.4408L499.143 96.0876C500.666 91.6293 503.608 87.7318 508.031 84.4003L506.828 82.8028ZM498.337 94.7741L468.33 90.5128L468.049 92.4929L498.056 96.7543L498.337 94.7741ZM469.151 91.7776C471.478 83.634 475.306 76.8604 480.623 71.4282L479.193 70.0292C473.62 75.7239 469.636 82.7997 467.228 91.2281L469.151 91.7776ZM480.626 71.4244C485.957 65.9201 492.481 61.7987 500.216 59.065L499.55 57.1793C491.543 60.009 484.749 64.292 479.19 70.033L480.626 71.4244ZM500.223 59.0628C507.972 56.2662 516.555 54.8608 525.984 54.8608V52.8608C516.355 52.8608 507.538 54.2963 499.544 57.1815L500.223 59.0628ZM525.984 54.8608C532.475 54.8608 538.938 55.6209 545.374 57.1422L545.834 55.1958C539.25 53.6395 532.633 52.8608 525.984 52.8608V54.8608ZM545.374 57.1422C551.775 58.6551 557.614 61.1546 562.898 64.6388L563.999 62.9691C558.512 59.3511 552.454 56.7606 545.834 55.1958L545.374 57.1422ZM562.905 64.643C568.14 68.0374 572.349 72.6723 575.53 78.5719L577.29 77.6227C573.961 71.4484 569.529 66.5544 563.993 62.9649L562.905 64.643ZM575.534 78.5786C578.746 84.4288 580.382 91.7974 580.382 100.736H582.382C582.382 91.5634 580.704 83.8397 577.287 77.616L575.534 78.5786ZM580.382 100.736V192H582.382V100.736H580.382ZM581.382 191H550.487V193H581.382V191ZM551.487 192V173.268H549.487V192H551.487ZM550.487 172.268H549.422V174.268H550.487V172.268ZM548.533 172.809C546.639 176.482 543.962 179.943 540.483 183.19L541.848 184.652C545.471 181.27 548.298 177.629 550.31 173.726L548.533 172.809ZM540.483 183.19C537.103 186.341 532.812 188.912 527.584 190.887L528.291 192.758C533.716 190.708 538.243 188.012 541.847 184.653L540.483 183.19ZM527.59 190.885C522.458 192.787 516.396 193.752 509.383 193.752V195.752C516.573 195.752 522.881 194.764 528.285 192.76L527.59 190.885ZM517.728 172.137C524.311 172.137 530.073 170.838 534.98 168.2L534.033 166.439C529.471 168.891 524.047 170.137 517.728 170.137V172.137ZM534.989 168.196C539.865 165.514 543.641 161.961 546.285 157.534L544.568 156.509C542.122 160.604 538.618 163.917 534.025 166.443L534.989 168.196ZM546.28 157.543C548.981 153.123 550.333 148.296 550.333 143.083H548.333C548.333 147.931 547.081 152.397 544.573 156.5L546.28 157.543ZM550.333 143.083V127.014H548.333V143.083H550.333ZM548.697 126.242C547.853 126.937 546.299 127.661 543.903 128.363L544.465 130.282C546.922 129.563 548.8 128.748 549.969 127.786L548.697 126.242ZM543.896 128.365C541.572 129.062 538.946 129.675 536.016 130.203L536.371 132.171C539.36 131.633 542.061 131.003 544.471 130.28L543.896 128.365ZM536.016 130.203C533.069 130.733 530.151 131.205 527.263 131.617L527.546 133.597C530.458 133.181 533.4 132.706 536.371 132.171L536.016 130.203ZM527.263 131.617C524.364 132.031 521.85 132.386 519.721 132.682L519.996 134.663C522.128 134.367 524.645 134.012 527.546 133.597L527.263 131.617ZM519.724 132.682C514.866 133.341 510.496 134.424 506.622 135.937L507.349 137.8C511.051 136.354 515.263 135.306 519.993 134.663L519.724 132.682ZM506.622 135.937C502.703 137.468 499.563 139.631 497.246 142.448L498.791 143.718C500.855 141.209 503.692 139.229 507.349 137.8L506.622 135.937ZM497.254 142.439C494.881 145.261 493.734 148.879 493.734 153.204H495.734C495.734 149.243 496.777 146.114 498.784 143.727L497.254 142.439ZM493.734 153.204C493.734 159.402 496.018 164.198 500.642 167.429L501.788 165.79C497.771 162.983 495.734 158.842 495.734 153.204H493.734ZM500.642 167.429C505.171 170.593 510.89 172.137 517.728 172.137V170.137C511.189 170.137 505.9 168.663 501.788 165.79L500.642 167.429ZM613.457 192H612.457V193H613.457V192ZM613.457 55.6364V54.6364H612.457V55.6364H613.457ZM644.618 55.6364H645.618V54.6364H644.618V55.6364ZM644.618 78.3636H643.618V79.3636H644.618V78.3636ZM646.039 78.3636V79.3636H646.772L646.992 78.6648L646.039 78.3636ZM658.823 60.1641L659.4 60.981L659.401 60.9799L658.823 60.1641ZM685.634 53.9496L685.553 54.9463L685.567 54.9474L685.581 54.9482L685.634 53.9496ZM691.227 54.571H692.227V53.7512L691.423 53.5904L691.227 54.571ZM691.227 84.1342L690.898 85.0787L692.227 85.5408V84.1342H691.227ZM684.746 82.8913L684.605 83.8813L684.616 83.8829L684.627 83.8842L684.746 82.8913ZM660.51 86.0874L660.984 86.9678L660.988 86.9657L660.51 86.0874ZM645.595 192V193H646.595V192H645.595ZM614.457 192V55.6364H612.457V192H614.457ZM613.457 56.6364H644.618V54.6364H613.457V56.6364ZM643.618 55.6364V78.3636H645.618V55.6364H643.618ZM644.618 79.3636H646.039V77.3636H644.618V79.3636ZM646.992 78.6648C649.42 70.9759 653.562 65.1016 659.4 60.981L658.246 59.3471C652.01 63.7493 647.629 70.008 645.085 78.0625L646.992 78.6648ZM659.401 60.9799C665.32 56.7848 672.07 54.6832 679.686 54.6832V52.6832C671.676 52.6832 664.518 54.9022 658.245 59.3482L659.401 60.9799ZM679.686 54.6832C681.429 54.6832 683.384 54.7704 685.553 54.9463L685.715 52.9528C683.504 52.7736 681.494 52.6832 679.686 52.6832V54.6832ZM685.581 54.9482C687.803 55.0651 689.616 55.2685 691.031 55.5516L691.423 53.5904C689.879 53.2817 687.963 53.0708 685.687 52.9509L685.581 54.9482ZM690.227 54.571V84.1342H692.227V54.571H690.227ZM691.556 83.1897C690.087 82.679 687.837 82.2551 684.865 81.8985L684.627 83.8842C687.574 84.2378 689.644 84.6425 690.898 85.0787L691.556 83.1897ZM684.888 81.9014C681.944 81.4809 679.086 81.2699 676.312 81.2699V83.2699C678.984 83.2699 681.748 83.4732 684.605 83.8813L684.888 81.9014ZM676.312 81.2699C670.303 81.2699 664.868 82.5764 660.032 85.209L660.988 86.9657C665.502 84.5084 670.603 83.2699 676.312 83.2699V81.2699ZM660.036 85.2069C655.263 87.7768 651.49 91.3647 648.732 95.9599L650.447 96.9889C653.017 92.7063 656.524 89.3695 660.984 86.9678L660.036 85.2069ZM648.732 95.9599C645.965 100.572 644.595 105.874 644.595 111.833H646.595C646.595 106.192 647.888 101.254 650.447 96.9889L648.732 95.9599ZM644.595 111.833V192H646.595V111.833H644.595ZM645.595 191H613.457V193H645.595V191ZM728.562 186.141L728.017 186.979L728.017 186.979L728.562 186.141ZM708.499 162.17L709.404 161.746L709.404 161.746L708.499 162.17ZM708.587 85.6435L707.686 85.2106L707.685 85.2127L708.587 85.6435ZM728.918 61.9396L729.448 62.7876L729.452 62.785L728.918 61.9396ZM777.124 57.9446L776.657 58.8287L776.665 58.8328L777.124 57.9446ZM789.376 67.6214L788.594 68.2447L788.598 68.2506L789.376 67.6214ZM796.389 78.1861L795.495 78.6333L795.771 79.1861H796.389V78.1861ZM797.721 78.1861V79.1861H798.721V78.1861H797.721ZM797.721 10.1818V9.18181H796.721V10.1818H797.721ZM829.947 10.1818H830.947V9.18181H829.947V10.1818ZM829.947 192V193H830.947V192H829.947ZM798.342 192H797.342V193H798.342V192ZM798.342 170.516H799.342V169.516H798.342V170.516ZM796.389 170.516V169.516H795.771L795.495 170.068L796.389 170.516ZM789.198 181.08L789.958 181.73L789.963 181.724L789.198 181.08ZM776.769 190.491L777.22 191.383L777.22 191.383L776.769 190.491ZM783.694 162.526L784.302 163.32L784.308 163.315L783.694 162.526ZM794.614 146.989L793.677 146.638L793.677 146.638L794.614 146.989ZM794.614 100.825L793.677 101.174L793.679 101.181L794.614 100.825ZM783.783 85.6435L783.176 86.4387L783.181 86.4423L783.783 85.6435ZM748.36 85.821L747.746 85.0317L747.746 85.0317L748.36 85.821ZM737.529 101.268L736.591 100.922L736.591 100.922L737.529 101.268ZM737.529 146.634L736.589 146.975L736.593 146.985L737.529 146.634ZM748.449 162.348L747.823 163.128L747.834 163.136L748.449 162.348ZM757.327 193.397C746.795 193.397 737.399 190.694 729.108 185.302L728.017 186.979C736.653 192.595 746.433 195.397 757.327 195.397V193.397ZM729.108 185.302C720.822 179.914 714.249 172.078 709.404 161.746L707.593 162.595C712.573 173.214 719.376 181.359 728.017 186.979L729.108 185.302ZM709.404 161.746C704.569 151.436 702.13 138.864 702.13 123.996H700.13C700.13 139.075 702.603 151.953 707.593 162.595L709.404 161.746ZM702.13 123.996C702.13 108.949 704.599 96.3211 709.49 86.0742L707.685 85.2127C702.632 95.7991 700.13 108.74 700.13 123.996H702.13ZM709.489 86.0764C714.451 75.744 721.109 67.999 729.448 62.7876L728.388 61.0916C719.68 66.5336 712.786 74.5912 707.686 85.2106L709.489 86.0764ZM729.452 62.785C737.808 57.5042 747.121 54.8608 757.415 54.8608V52.8608C746.758 52.8608 737.072 55.6033 728.383 61.0943L729.452 62.785ZM757.415 54.8608C765.3 54.8608 771.695 56.2053 776.657 58.8286L777.592 57.0606C772.255 54.2389 765.511 52.8608 757.415 52.8608V54.8608ZM776.665 58.8328C781.713 61.444 785.678 64.5863 788.594 68.2446L790.158 66.9982C787.036 63.0808 782.834 59.7719 777.584 57.0564L776.665 58.8328ZM788.598 68.2506C791.584 71.9386 793.878 75.3993 795.495 78.6333L797.284 77.7389C795.586 74.3441 793.204 70.7617 790.153 66.9922L788.598 68.2506ZM796.389 79.1861H797.721V77.1861H796.389V79.1861ZM798.721 78.1861V10.1818H796.721V78.1861H798.721ZM797.721 11.1818H829.947V9.18181H797.721V11.1818ZM828.947 10.1818V192H830.947V10.1818H828.947ZM829.947 191H798.342V193H829.947V191ZM799.342 192V170.516H797.342V192H799.342ZM798.342 169.516H796.389V171.516H798.342V169.516ZM795.495 170.068C793.882 173.294 791.534 176.75 788.433 180.436L789.963 181.724C793.136 177.953 795.582 174.366 797.284 170.963L795.495 170.068ZM788.438 180.43C785.402 183.982 781.372 187.042 776.318 189.598L777.22 191.383C782.465 188.731 786.72 185.518 789.958 181.73L788.438 180.43ZM776.318 189.598C771.349 192.111 765.035 193.397 757.327 193.397V195.397C765.243 195.397 771.891 194.079 777.22 191.383L776.318 189.598ZM766.293 169.03C773.29 169.03 779.311 167.14 784.302 163.32L783.086 161.731C778.488 165.251 772.909 167.03 766.293 167.03V169.03ZM784.308 163.315C789.27 159.455 793.01 154.113 795.55 147.34L793.677 146.638C791.245 153.123 787.705 158.139 783.08 161.736L784.308 163.315ZM795.55 147.34C798.087 140.576 799.342 132.728 799.342 123.818H797.342C797.342 132.545 796.112 140.145 793.677 146.638L795.55 147.34ZM799.342 123.818C799.342 114.909 798.087 107.118 795.548 100.468L793.679 101.181C796.112 107.552 797.342 115.09 797.342 123.818H799.342ZM795.551 100.475C793.068 93.8149 789.354 88.5869 784.384 84.8446L783.181 86.4423C787.8 89.9206 791.306 94.8134 793.677 101.174L795.551 100.475ZM784.389 84.8483C779.453 81.0842 773.4 79.228 766.293 79.228V81.228C773.036 81.228 778.643 82.9821 783.176 86.4387L784.389 84.8483ZM766.293 79.228C758.951 79.228 752.746 81.143 747.746 85.0317L748.974 86.6104C753.562 83.0416 759.313 81.228 766.293 81.228V79.228ZM747.746 85.0317C742.783 88.8915 739.072 94.2047 736.591 100.922L738.467 101.615C740.839 95.193 744.349 90.2079 748.974 86.6104L747.746 85.0317ZM736.591 100.922C734.116 107.623 732.889 115.26 732.889 123.818H734.889C734.889 115.449 736.089 108.053 738.467 101.615L736.591 100.922ZM732.889 123.818C732.889 132.435 734.116 140.159 736.589 146.975L738.469 146.293C736.089 139.734 734.889 132.247 734.889 123.818H732.889ZM736.593 146.985C739.132 153.756 742.869 159.152 747.823 163.128L749.075 161.568C744.441 157.85 740.898 152.77 738.465 146.283L736.593 146.985ZM747.834 163.136C752.887 167.081 759.061 169.03 766.293 169.03V167.03C759.439 167.03 753.717 165.191 749.064 161.56L747.834 163.136ZM1041.76 10.1818V9.18181H1040.76V10.1818H1041.76ZM1074.7 10.1818H1075.7V9.18181H1074.7V10.1818ZM1065.46 163.325L1064.61 162.796L1064.61 162.8L1065.46 163.325ZM1039.72 186.496L1040.16 187.391L1040.17 187.389L1039.72 186.496ZM962.036 186.496L961.587 187.389L961.591 187.391L962.036 186.496ZM936.29 163.325L937.141 162.8L936.29 163.325ZM927.146 10.1818V9.18181H926.146V10.1818H927.146ZM960.083 10.1818H961.083V9.18181H960.083V10.1818ZM965.054 146.457L964.182 146.945L964.185 146.952L965.054 146.457ZM979.259 160.395L978.775 161.27L978.781 161.273L979.259 160.395ZM1022.58 160.395L1023.06 161.273L1023.06 161.272L1022.58 160.395ZM1036.79 146.457L1037.66 146.945L1037.66 146.945L1036.79 146.457ZM1041.76 11.1818H1074.7V9.18181H1041.76V11.1818ZM1073.7 10.1818V128.967H1075.7V10.1818H1073.7ZM1073.7 128.967C1073.7 141.824 1070.66 153.089 1064.61 162.796L1066.31 163.853C1072.58 153.792 1075.7 142.152 1075.7 128.967H1073.7ZM1064.61 162.8C1058.62 172.515 1050.18 180.116 1039.27 185.602L1040.17 187.389C1051.39 181.748 1060.11 173.902 1066.31 163.85L1064.61 162.8ZM1039.27 185.6C1028.37 191.024 1015.59 193.752 1000.92 193.752V195.752C1015.84 195.752 1028.93 192.976 1040.16 187.391L1039.27 185.6ZM1000.92 193.752C986.189 193.752 973.385 191.023 962.481 185.6L961.591 187.391C972.822 192.977 985.941 195.752 1000.92 195.752V193.752ZM962.485 185.602C951.571 180.116 943.133 172.515 937.141 162.8L935.439 163.85C941.639 173.902 950.365 181.748 961.587 187.389L962.485 185.602ZM937.141 162.8C931.154 153.092 928.146 141.826 928.146 128.967H926.146C926.146 142.15 929.234 153.789 935.439 163.85L937.141 162.8ZM928.146 128.967V10.1818H926.146V128.967H928.146ZM927.146 11.1818H960.083V9.18181H927.146V11.1818ZM959.083 10.1818V126.215H961.083V10.1818H959.083ZM959.083 126.215C959.083 133.942 960.774 140.861 964.182 146.945L965.927 145.968C962.705 140.216 961.083 133.64 961.083 126.215H959.083ZM964.185 146.952C967.652 153.034 972.522 157.81 978.775 161.27L979.743 159.52C973.804 156.233 969.204 151.717 965.923 145.961L964.185 146.952ZM978.781 161.273C985.051 164.682 992.442 166.366 1000.92 166.366V164.366C992.709 164.366 985.659 162.736 979.736 159.516L978.781 161.273ZM1000.92 166.366C1009.4 166.366 1016.79 164.682 1023.06 161.273L1022.11 159.516C1016.18 162.736 1009.13 164.366 1000.92 164.366V166.366ZM1023.06 161.272C1029.38 157.811 1034.25 153.033 1037.66 146.945L1035.91 145.968C1032.7 151.717 1028.1 156.231 1022.1 159.518L1023.06 161.272ZM1037.66 146.945C1041.07 140.861 1042.76 133.942 1042.76 126.215H1040.76C1040.76 133.64 1039.14 140.216 1035.91 145.968L1037.66 146.945ZM1042.76 126.215V10.1818H1040.76V126.215H1042.76ZM1143.19 10.1818H1144.19V9.18181H1143.19V10.1818ZM1143.19 192V193H1144.19V192H1143.19ZM1110.26 192H1109.26V193H1110.26V192ZM1110.26 10.1818V9.18181H1109.26V10.1818H1110.26ZM1142.19 10.1818V192H1144.19V10.1818H1142.19ZM1143.19 191H1110.26V193H1143.19V191ZM1111.26 192V10.1818H1109.26V192H1111.26ZM1110.26 11.1818H1143.19V9.18181H1110.26V11.1818Z" fill="url(#paint0_linear_588_3)" mask="url(#path-1-outside-1_588_3)"/>
<defs>
<linearGradient id="paint0_linear_588_3" x1="579" y1="-9" x2="579" y2="211" gradientUnits="userSpaceOnUse">
<stop stop-color="#476BD4"/>
<stop offset="0.568" stop-color="#263774" stop-opacity="0.25"/>
<stop offset="1" stop-color="#040313" stop-opacity="0"/>
</linearGradient>
</defs>
</svg>
