<svg width="103" height="49" viewBox="0 0 103 49" fill="none" xmlns="http://www.w3.org/2000/svg">
<path d="M101.622 24.0696C101.782 24.0296 101.922 24.0496 102.042 24.1296C102.182 24.2096 102.272 24.3296 102.312 24.4896C102.352 24.6496 102.332 24.7996 102.252 24.9396C101.592 25.9996 100.962 26.9496 100.362 27.7896C99.7623 28.6096 99.2423 29.2796 98.8023 29.7996C98.3823 30.2996 97.9723 30.7196 97.5723 31.0596C97.1723 31.4196 96.8523 31.6696 96.6123 31.8096C96.3723 31.9696 96.1323 32.0696 95.8923 32.1096C95.6523 32.1696 95.4823 32.1896 95.3823 32.1696C95.3023 32.1696 95.2023 32.1596 95.0823 32.1396C94.1423 31.8996 93.6123 30.8296 93.4923 28.9296C93.4723 28.5096 93.4223 28.1596 93.3423 27.8796C93.2623 27.5796 93.1923 27.3896 93.1323 27.3096C93.0723 27.2096 93.0223 27.1596 92.9823 27.1596C92.9623 27.1596 92.9523 27.1596 92.9523 27.1596C92.7923 27.1596 92.5723 27.2896 92.2923 27.5496C92.0123 27.7896 91.6723 28.1896 91.2723 28.7496C90.8723 29.3096 90.4523 29.9896 90.0123 30.7896C89.5723 31.5896 89.0823 32.5996 88.5423 33.8196C88.0223 35.0396 87.5123 36.3596 87.0123 37.7796C86.9323 38.0396 86.7523 38.1696 86.4723 38.1696C86.4323 38.1696 86.3923 38.1696 86.3523 38.1696C86.2523 38.1496 86.1723 38.1096 86.1123 38.0496C86.0323 37.9896 85.9723 37.9096 85.9323 37.8096C85.8923 37.7296 85.8823 37.6496 85.9023 37.5696C85.9423 36.7496 86.4723 34.1196 87.4923 29.6796C88.4923 25.2196 89.3123 21.6396 89.9523 18.9396C90.6123 16.2196 91.1223 14.1396 91.4823 12.6996C92.1623 9.93957 92.9423 7.58957 93.8223 5.64957C94.7223 3.68957 95.4923 2.64957 96.1323 2.52957C96.4723 2.46957 96.7323 2.56957 96.9123 2.82957C97.3523 3.42957 97.0923 4.97957 96.1323 7.47957C95.1923 9.97957 93.7223 13.0396 91.7223 16.6596C90.1823 22.9996 88.9923 28.0896 88.1523 31.9296C89.0323 30.0696 89.9023 28.5996 90.7623 27.5196C91.6223 26.4196 92.4123 25.9196 93.1323 26.0196C94.0323 26.1396 94.5323 27.0796 94.6323 28.8396C94.7323 30.1796 94.9723 30.8996 95.3523 30.9996C95.4123 31.0196 95.4923 31.0196 95.5923 30.9996C95.7123 30.9796 95.9423 30.8596 96.2823 30.6396C96.6223 30.4196 96.9923 30.0996 97.3923 29.6796C97.7923 29.2396 98.3323 28.5596 99.0123 27.6396C99.7123 26.7196 100.462 25.6096 101.262 24.3096C101.342 24.1896 101.462 24.1096 101.622 24.0696ZM95.9223 4.20957C94.8223 5.78957 93.7923 8.39957 92.8323 12.0396C94.5923 8.49957 95.6223 5.88957 95.9223 4.20957Z" fill="white"/>
<path d="M88.8584 23.9802C89.0184 23.9602 89.1584 24.0102 89.2784 24.1302C89.3984 24.2302 89.4684 24.3602 89.4884 24.5202C89.5084 24.6802 89.4584 24.8202 89.3384 24.9402C85.4584 29.4602 83.2384 32.0702 82.6784 32.7702C82.3384 33.2102 82.0084 33.6402 81.6884 34.0602C81.9684 35.2002 81.9884 36.3002 81.7484 37.3602C81.5084 38.4202 81.1684 39.3302 80.7284 40.0902C80.2884 40.8502 79.7684 41.4702 79.1684 41.9502C78.6084 42.4302 78.0884 42.6702 77.6084 42.6702C77.3084 42.6702 77.0584 42.5702 76.8584 42.3702C75.7984 41.3502 76.9884 38.5002 80.4284 33.8202C80.2084 33.0602 79.8584 32.3202 79.3784 31.6002C78.3784 30.1002 77.6384 28.8502 77.1584 27.8502C76.6784 26.8502 76.4584 25.9402 76.4984 25.1202C76.5384 24.3202 76.7484 23.6002 77.1284 22.9602C77.5284 22.3202 78.0584 21.8002 78.7184 21.4002C79.2784 21.0602 79.8684 20.8602 80.4884 20.8002C81.1084 20.7402 81.6784 20.8302 82.1984 21.0702C82.3384 21.1502 82.4284 21.2702 82.4684 21.4302C82.5284 21.5702 82.5184 21.7102 82.4384 21.8502C82.3784 21.9902 82.2684 22.0902 82.1084 22.1502C81.9684 22.1902 81.8284 22.1802 81.6884 22.1202C80.9684 21.7802 80.1784 21.8702 79.3184 22.3902C78.2784 23.0102 77.7284 23.9402 77.6684 25.1802C77.6284 25.8402 77.8384 26.6302 78.2984 27.5502C78.7584 28.4502 79.4384 29.5802 80.3384 30.9402C80.7184 31.5202 81.0284 32.1102 81.2684 32.7102C81.4284 32.5102 81.5984 32.2902 81.7784 32.0502C82.3384 31.3502 84.5684 28.7302 88.4684 24.1902C88.5684 24.0702 88.6984 24.0002 88.8584 23.9802ZM79.5284 39.8202C80.4084 38.4802 80.7984 37.0102 80.6984 35.4102C79.8584 36.6102 79.1784 37.6802 78.6584 38.6202C78.1584 39.5602 77.8484 40.2302 77.7284 40.6302C77.6284 41.0502 77.5984 41.3402 77.6384 41.5002C77.8184 41.4802 78.0884 41.3202 78.4484 41.0202C78.8084 40.7402 79.1684 40.3402 79.5284 39.8202Z" fill="white"/>
<path d="M76.8417 24.1901C77.0017 24.1301 77.1517 24.1401 77.2917 24.2201C77.4317 24.2801 77.5317 24.3901 77.5917 24.5501C77.6517 24.6901 77.6417 24.8301 77.5617 24.9701C77.0217 26.1301 76.4117 27.3201 75.7317 28.5401C75.0517 29.7601 74.3017 30.9901 73.4817 32.2301C72.6817 33.4901 71.8817 34.5101 71.0817 35.2901C70.2817 36.0901 69.6017 36.4901 69.0417 36.4901C68.9017 36.4901 68.7717 36.4601 68.6517 36.4001C67.8317 36.0801 67.5717 34.8401 67.8717 32.6801C68.1517 30.6601 68.8917 27.8001 70.0917 24.1001C70.0717 24.1001 70.0517 24.1101 70.0317 24.1301C70.0317 24.1301 70.0217 24.1301 70.0017 24.1301C69.5617 24.4301 69.1917 24.6601 68.8917 24.8201C68.6117 24.9801 68.2217 25.1601 67.7217 25.3601C67.2417 25.5601 66.7817 25.6501 66.3417 25.6301C65.9017 25.6101 65.4917 25.4701 65.1117 25.2101C64.3517 24.6701 63.9617 23.9201 63.9417 22.9601C63.9217 22.0001 64.2817 20.9501 65.0217 19.8101C65.4817 19.0901 66.0317 18.4601 66.6717 17.9201C67.3317 17.3801 67.8917 17.2601 68.3517 17.5601C68.6317 17.7201 68.7917 17.9801 68.8317 18.3401C68.8917 18.7001 68.7217 19.4001 68.3217 20.4401C67.9217 21.4601 67.2517 22.8001 66.3117 24.4601C66.9317 24.5401 67.9517 24.1101 69.3717 23.1701C69.6317 22.9901 69.8217 22.8701 69.9417 22.8101C70.0817 22.7301 70.2317 22.6501 70.3917 22.5701C70.5717 22.4901 70.7217 22.4601 70.8417 22.4801C70.9617 22.5001 71.0817 22.5501 71.2017 22.6301C71.5017 22.8701 71.5517 23.2901 71.3517 23.8901C69.3517 30.0901 68.5617 33.8501 68.9817 35.1701C69.0217 35.2501 69.0517 35.3101 69.0717 35.3501C69.2317 35.3701 69.4717 35.2401 69.7917 34.9601C70.1317 34.6801 70.5417 34.2401 71.0217 33.6401C71.5217 33.0401 72.0517 32.3201 72.6117 31.4801C73.1917 30.6401 73.8217 29.6101 74.5017 28.3901C75.2017 27.1701 75.8717 25.8701 76.5117 24.4901C76.5917 24.3301 76.7017 24.2301 76.8417 24.1901ZM65.2017 22.1501C65.0217 22.8501 65.0617 23.4101 65.3217 23.8301C66.7817 21.2901 67.5617 19.5701 67.6617 18.6701C67.4217 18.8101 67.1417 19.0401 66.8217 19.3601C66.5217 19.6801 66.2017 20.1001 65.8617 20.6201C65.5417 21.1201 65.3217 21.6301 65.2017 22.1501Z" fill="white"/>
<path d="M65.0797 24.3099C65.2397 24.2499 65.3897 24.2599 65.5297 24.3399C65.6697 24.3999 65.7597 24.5099 65.7997 24.6699C65.8597 24.8099 65.8597 24.9499 65.7997 25.0899C63.6597 29.5099 61.7497 31.7199 60.0697 31.7199C59.9697 31.7199 59.8597 31.7099 59.7397 31.6899C58.3997 31.4299 57.5697 29.6299 57.2497 26.2899C56.2697 27.6099 55.3997 28.6899 54.6397 29.5299C53.9597 30.2499 53.3797 30.4999 52.8997 30.2799C52.4197 30.0999 52.1897 29.5799 52.2097 28.7199C52.2097 27.9999 52.3697 27.1399 52.6897 26.1399C53.0097 25.1399 53.4797 24.1699 54.0997 23.2299C54.7197 22.2899 55.3897 21.6999 56.1097 21.4599C57.1697 21.0799 58.1497 21.4299 59.0497 22.5099C59.1497 22.6299 59.1897 22.7699 59.1697 22.9299C59.1697 23.0899 59.1097 23.2199 58.9897 23.3199C58.8697 23.4199 58.7297 23.4699 58.5697 23.4699C58.4097 23.4499 58.2797 23.3799 58.1797 23.2599C57.4797 22.4199 56.7697 22.2599 56.0497 22.7799C55.2297 23.3599 54.5397 24.4099 53.9797 25.9299C53.4397 27.4299 53.2297 28.4999 53.3497 29.1399C53.4697 29.0399 53.6097 28.9099 53.7697 28.7499C54.5697 27.8899 55.5497 26.6599 56.7097 25.0599C56.9697 24.6999 57.1497 24.4499 57.2497 24.3099C57.4097 24.1099 57.6197 24.0499 57.8797 24.1299C58.1397 24.1899 58.2797 24.3599 58.2997 24.6399C58.3397 25.6199 58.4197 26.4899 58.5397 27.2499C58.6597 28.0099 58.7797 28.5899 58.8997 28.9899C59.0197 29.3699 59.1597 29.6899 59.3197 29.9499C59.4797 30.2099 59.5997 30.3799 59.6797 30.4599C59.7797 30.5199 59.8797 30.5499 59.9797 30.5499C60.2597 30.6099 60.6097 30.4799 61.0297 30.1599C61.4697 29.8199 62.0197 29.1799 62.6797 28.2399C63.3597 27.2799 64.0497 26.0699 64.7497 24.6099C64.8297 24.4499 64.9397 24.3499 65.0797 24.3099Z" fill="white"/>
<path d="M56.3653 5.94953C56.8853 6.46953 56.6253 8.30953 55.5853 11.4695C55.5053 11.7095 55.3953 12.0395 55.2553 12.4595C54.8153 13.7995 54.4553 14.8695 54.1753 15.6695C53.8953 16.4695 53.4553 17.5895 52.8553 19.0295C52.2553 20.4695 51.6053 21.8495 50.9053 23.1695C50.3253 25.9295 49.7753 28.8695 49.2553 31.9895C48.3553 37.3295 47.8753 40.9495 47.8153 42.8495C47.9753 42.7895 48.1353 42.7895 48.2953 42.8495C48.4353 42.9295 48.5253 43.0395 48.5653 43.1795C48.6253 43.3395 48.6253 43.4895 48.5653 43.6295C48.2053 44.3895 47.8453 44.7695 47.4853 44.7695C47.4053 44.7695 47.3253 44.7595 47.2453 44.7395C47.0253 44.6595 46.8653 44.5095 46.7653 44.2895C46.6853 44.0895 46.6453 43.6495 46.6453 42.9695C46.6653 42.3095 46.7553 41.3295 46.9153 40.0295C47.1553 37.9495 47.5553 35.2095 48.1153 31.8095C48.4353 29.9495 48.7653 28.1395 49.1053 26.3795C48.4853 27.3795 47.8253 28.3795 47.1253 29.3795C45.8053 31.2995 44.6553 31.9895 43.6753 31.4495C43.0353 30.9895 42.7253 30.1795 42.7453 29.0195C42.7653 27.8395 43.0553 26.6495 43.6153 25.4495C44.2753 24.0495 45.0553 23.0195 45.9553 22.3595C46.8553 21.6995 47.6553 21.4795 48.3553 21.6995C49.0553 21.8995 49.4553 22.4195 49.5553 23.2595C49.6553 23.0995 49.7453 22.9395 49.8253 22.7795C50.8853 17.7595 51.9453 13.7295 53.0053 10.6895C54.0853 7.62953 54.9653 5.98953 55.6453 5.76953C55.9253 5.66953 56.1653 5.72953 56.3653 5.94953ZM46.1953 28.7195C47.1353 27.3595 47.9953 25.9995 48.7753 24.6395C48.4753 24.5395 48.3553 24.3395 48.4153 24.0395C48.4953 23.2995 48.3653 22.8795 48.0253 22.7795C47.9853 22.7795 47.9253 22.7795 47.8453 22.7795C47.4253 22.7795 46.9053 23.0595 46.2853 23.6195C45.6853 24.1595 45.1453 24.9395 44.6653 25.9595C44.3453 26.6195 44.1253 27.2995 44.0053 27.9995C43.9053 28.6795 43.8853 29.2395 43.9453 29.6795C44.0053 30.0995 44.1153 30.3495 44.2753 30.4295C44.3353 30.4695 44.4253 30.4695 44.5453 30.4295C44.6853 30.3695 44.9053 30.1995 45.2053 29.9195C45.5053 29.6195 45.8353 29.2195 46.1953 28.7195ZM54.4753 11.1095C54.8753 9.88953 55.1653 8.84953 55.3453 7.98953C54.3653 10.0495 53.3153 13.2595 52.1953 17.6195C52.7553 16.2595 53.4053 14.4295 54.1453 12.1295C54.2853 11.6895 54.3953 11.3495 54.4753 11.1095Z" fill="white"/>
<path d="M44.3375 24.3099C44.4975 24.2499 44.6475 24.2599 44.7875 24.3399C44.9275 24.3999 45.0175 24.5099 45.0575 24.6699C45.1175 24.8099 45.1175 24.9499 45.0575 25.0899C42.9175 29.5099 41.0075 31.7199 39.3275 31.7199C39.2275 31.7199 39.1175 31.7099 38.9975 31.6899C37.6575 31.4299 36.8275 29.6299 36.5075 26.2899C35.5275 27.6099 34.6575 28.6899 33.8975 29.5299C33.2175 30.2499 32.6375 30.4999 32.1575 30.2799C31.6775 30.0999 31.4475 29.5799 31.4675 28.7199C31.4675 27.9999 31.6275 27.1399 31.9475 26.1399C32.2675 25.1399 32.7375 24.1699 33.3575 23.2299C33.9775 22.2899 34.6475 21.6999 35.3675 21.4599C36.4275 21.0799 37.4075 21.4299 38.3075 22.5099C38.4075 22.6299 38.4475 22.7699 38.4275 22.9299C38.4275 23.0899 38.3675 23.2199 38.2475 23.3199C38.1275 23.4199 37.9875 23.4699 37.8275 23.4699C37.6675 23.4499 37.5375 23.3799 37.4375 23.2599C36.7375 22.4199 36.0275 22.2599 35.3075 22.7799C34.4875 23.3599 33.7975 24.4099 33.2375 25.9299C32.6975 27.4299 32.4875 28.4999 32.6075 29.1399C32.7275 29.0399 32.8675 28.9099 33.0275 28.7499C33.8275 27.8899 34.8075 26.6599 35.9675 25.0599C36.2275 24.6999 36.4075 24.4499 36.5075 24.3099C36.6675 24.1099 36.8775 24.0499 37.1375 24.1299C37.3975 24.1899 37.5375 24.3599 37.5575 24.6399C37.5975 25.6199 37.6775 26.4899 37.7975 27.2499C37.9175 28.0099 38.0375 28.5899 38.1575 28.9899C38.2775 29.3699 38.4175 29.6899 38.5775 29.9499C38.7375 30.2099 38.8575 30.3799 38.9375 30.4599C39.0375 30.5199 39.1375 30.5499 39.2375 30.5499C39.5175 30.6099 39.8675 30.4799 40.2875 30.1599C40.7275 29.8199 41.2775 29.1799 41.9375 28.2399C42.6175 27.2799 43.3075 26.0699 44.0075 24.6099C44.0875 24.4499 44.1975 24.3499 44.3375 24.3099Z" fill="white"/>
<path d="M30.4577 24.8498C30.5977 24.9498 30.6777 25.0798 30.6977 25.2398C30.7177 25.3998 30.6877 25.5398 30.6077 25.6598C30.4877 25.8198 30.3277 25.8998 30.1277 25.8998C30.0477 25.8998 29.9677 25.8798 29.8877 25.8398C29.4877 25.7598 27.5077 25.6598 23.9477 25.5398C22.9677 29.6398 22.1777 33.1098 21.5777 35.9498C20.3577 41.6098 19.7477 45.2398 19.7477 46.8398C19.8277 46.6998 19.9177 46.5498 20.0177 46.3898C20.0977 46.2498 20.2177 46.1598 20.3777 46.1198C20.5377 46.0798 20.6777 46.0998 20.7977 46.1798C20.9377 46.2598 21.0277 46.3699 21.0677 46.5098C21.1077 46.6698 21.0877 46.8198 21.0077 46.9598C20.4277 47.9398 19.9277 48.4298 19.5077 48.4298C19.4077 48.4298 19.3077 48.4098 19.2077 48.3699C18.9677 48.2698 18.7977 48.0498 18.6977 47.7099C18.6177 47.3898 18.5977 46.7598 18.6377 45.8198C18.6977 44.8998 18.8777 43.6198 19.1777 41.9798C19.4777 40.3398 19.9177 38.1598 20.4977 35.4398C21.0977 32.7398 21.8577 29.4298 22.7777 25.5098C21.4177 25.4698 19.3877 25.4199 16.6877 25.3598C16.2877 25.3398 15.8377 25.3298 15.3377 25.3298C12.3177 31.0698 9.97769 35.0798 8.31769 37.3598C7.87769 37.9398 7.43769 38.3898 6.99769 38.7098C6.55769 39.0298 6.14769 39.2098 5.76769 39.2498C5.38769 39.3098 5.06769 39.3098 4.80769 39.2498C4.54769 39.1898 4.29769 39.0898 4.05769 38.9498C3.01769 38.3498 2.18769 37.1298 1.56769 35.2898C0.967694 33.4698 0.697694 31.4498 0.757694 29.2298C0.817694 26.9898 1.20769 25.0398 1.92769 23.3798C2.82769 21.3398 4.13769 19.9698 5.85769 19.2698C7.59769 18.5698 9.63769 18.5898 11.9777 19.3298C12.1377 19.3698 12.2477 19.4598 12.3077 19.5998C12.3877 19.7398 12.3977 19.8898 12.3377 20.0498C12.2977 20.1898 12.2077 20.2998 12.0677 20.3798C11.9277 20.4598 11.7777 20.4698 11.6177 20.4098C10.8377 20.1698 10.0777 20.0198 9.33769 19.9598C8.59769 19.8998 7.81769 19.9598 6.99769 20.1398C6.19769 20.2998 5.44769 20.6998 4.74769 21.3398C4.04769 21.9598 3.45769 22.7998 2.97769 23.8598C2.61769 24.6798 2.34769 25.5898 2.16769 26.5898C1.98769 27.5898 1.89769 28.5698 1.89769 29.5299C1.89769 30.4899 1.96769 31.4298 2.10769 32.3498C2.24769 33.2898 2.43769 34.1298 2.67769 34.8698C2.93769 35.6298 3.22769 36.2798 3.54769 36.8198C3.88769 37.3598 4.24769 37.7398 4.62769 37.9598C5.46769 38.4398 6.38769 38.0098 7.38769 36.6698C8.98769 34.5098 11.2077 30.7198 14.0477 25.2998C8.84769 25.1598 6.00769 25.0398 5.52769 24.9398C5.36769 24.8998 5.23769 24.8198 5.13769 24.6998C5.05769 24.5598 5.02769 24.4098 5.04769 24.2498C5.08769 24.0898 5.17769 23.9698 5.31769 23.8898C5.45769 23.8098 5.59769 23.7798 5.73769 23.7998C6.17769 23.8998 9.14769 24.0198 14.6477 24.1598C15.5277 22.4398 16.8577 19.8398 18.6377 16.3598C19.7977 14.0398 20.7477 12.1598 21.4877 10.7198C22.2277 9.27985 22.9477 7.90985 23.6477 6.60985C24.3677 5.30985 24.9377 4.32985 25.3577 3.66985C25.7777 2.98985 26.1777 2.40985 26.5577 1.92985C26.9377 1.42985 27.2477 1.11985 27.4877 0.999849C27.7477 0.859847 27.9977 0.829847 28.2377 0.909848C28.5577 1.02985 28.7577 1.29985 28.8377 1.71985C28.9377 2.13985 28.9477 2.71985 28.8677 3.45985C28.7477 4.75985 28.3977 6.69985 27.8177 9.27985C27.5777 10.4198 26.9677 12.9998 25.9877 17.0198C25.2277 20.1798 24.6377 22.6398 24.2177 24.3998C28.1177 24.5198 30.1977 24.6698 30.4577 24.8498ZM16.7177 24.1898C19.3377 24.2699 21.4477 24.3298 23.0477 24.3698C23.5877 22.0498 24.1877 19.5098 24.8477 16.7498C25.8277 12.7498 26.4477 10.1798 26.7077 9.03985C27.4877 5.49985 27.8377 3.22985 27.7577 2.22985C27.4377 2.54985 26.9877 3.17985 26.4077 4.11985C25.8477 5.03985 25.1277 6.31985 24.2477 7.95985C23.3877 9.59985 22.6677 10.9898 22.0877 12.1298C21.5077 13.2498 20.6977 14.8298 19.6577 16.8698C18.0177 20.1098 16.7777 22.5498 15.9377 24.1898C16.0177 24.1898 16.1377 24.1898 16.2977 24.1898C16.4777 24.1898 16.6177 24.1898 16.7177 24.1898Z" fill="white"/>
</svg>
