<svg width="1362" height="315" viewBox="0 0 1362 315" fill="none" xmlns="http://www.w3.org/2000/svg">
<mask id="path-1-outside-1_738_14" maskUnits="userSpaceOnUse" x="0" y="0" width="1362" height="315" fill="black">
<rect fill="white" width="1362" height="315"/>
<path d="M84.767 309L1.52841 18.0909H68.7159L116.869 220.222H119.284L172.409 18.0909H229.938L282.92 220.648H285.477L333.631 18.0909H400.818L317.58 309H257.636L202.239 118.801H199.966L144.71 309H84.767ZM432.601 309V90.8182H493.112V309H432.601ZM462.999 62.6932C454.002 62.6932 446.285 59.7102 439.845 53.7443C433.5 47.6837 430.328 40.4394 430.328 32.0114C430.328 23.678 433.5 16.5284 439.845 10.5625C446.285 4.50188 454.002 1.47158 462.999 1.47158C471.995 1.47158 479.665 4.50188 486.01 10.5625C492.449 16.5284 495.669 23.678 495.669 32.0114C495.669 40.4394 492.449 47.6837 486.01 53.7443C479.665 59.7102 471.995 62.6932 462.999 62.6932ZM540.449 309V272.92L647.267 140.676V139.114H544.142V90.8182H720.136V130.165L619.852 259.142V260.705H723.83V309H540.449ZM832.317 313.119C818.396 313.119 805.991 310.705 795.101 305.875C784.211 300.951 775.593 293.706 769.249 284.142C762.999 274.483 759.874 262.456 759.874 248.062C759.874 235.941 762.099 225.761 766.55 217.523C771 209.284 777.061 202.655 784.732 197.636C792.402 192.617 801.114 188.83 810.868 186.273C820.716 183.716 831.038 181.917 841.834 180.875C854.523 179.549 864.75 178.318 872.516 177.182C880.281 175.951 885.915 174.152 889.419 171.784C892.923 169.417 894.675 165.913 894.675 161.273V160.42C894.675 151.424 891.834 144.464 886.152 139.54C880.565 134.616 872.61 132.153 862.288 132.153C851.398 132.153 842.733 134.568 836.294 139.398C829.855 144.133 825.593 150.098 823.51 157.295L767.544 152.75C770.385 139.492 775.972 128.034 784.305 118.375C792.639 108.621 803.387 101.14 816.55 95.9318C829.807 90.6288 845.148 87.9773 862.572 87.9773C874.694 87.9773 886.294 89.3977 897.374 92.2386C908.548 95.0795 918.444 99.483 927.061 105.449C935.773 111.415 942.639 119.085 947.658 128.46C952.677 137.741 955.186 148.867 955.186 161.841V309H897.8V278.744H896.095C892.591 285.562 887.904 291.576 882.033 296.784C876.161 301.898 869.107 305.922 860.868 308.858C852.629 311.699 843.112 313.119 832.317 313.119ZM849.646 271.358C858.548 271.358 866.408 269.606 873.226 266.102C880.044 262.504 885.394 257.674 889.277 251.614C893.16 245.553 895.101 238.687 895.101 231.017V207.864C893.207 209.095 890.603 210.231 887.288 211.273C884.069 212.22 880.423 213.119 876.351 213.972C872.279 214.729 868.207 215.439 864.135 216.102C860.063 216.67 856.37 217.191 853.055 217.665C845.953 218.706 839.75 220.364 834.447 222.636C829.144 224.909 825.025 227.987 822.089 231.869C819.154 235.657 817.686 240.392 817.686 246.074C817.686 254.312 820.669 260.61 826.635 264.966C832.696 269.227 840.366 271.358 849.646 271.358ZM1002.13 309V90.8182H1060.8V128.886H1063.07C1067.05 115.345 1073.72 105.117 1083.1 98.2045C1092.47 91.197 1103.27 87.6932 1115.48 87.6932C1118.51 87.6932 1121.78 87.8826 1125.29 88.2614C1128.79 88.6402 1131.87 89.161 1134.52 89.8239V143.517C1131.68 142.665 1127.75 141.907 1122.73 141.244C1117.71 140.581 1113.12 140.25 1108.95 140.25C1100.05 140.25 1092.09 142.191 1085.09 146.074C1078.17 149.862 1072.68 155.165 1068.61 161.983C1064.63 168.801 1062.64 176.661 1062.64 185.562V309H1002.13ZM1236.05 312.551C1219.47 312.551 1204.46 308.29 1191.02 299.767C1177.66 291.15 1167.06 278.508 1159.2 261.841C1151.43 245.08 1147.55 224.53 1147.55 200.193C1147.55 175.193 1151.58 154.407 1159.62 137.835C1167.67 121.169 1178.38 108.716 1191.73 100.477C1205.17 92.1439 1219.9 87.9773 1235.9 87.9773C1248.12 87.9773 1258.3 90.0606 1266.44 94.2273C1274.68 98.2992 1281.31 103.413 1286.33 109.568C1291.44 115.629 1295.33 121.595 1297.98 127.466H1299.82V18.0909H1360.19V309H1300.53V274.057H1297.98C1295.14 280.117 1291.11 286.131 1285.9 292.097C1280.79 297.968 1274.11 302.845 1265.88 306.727C1257.73 310.61 1247.79 312.551 1236.05 312.551ZM1255.22 264.398C1264.98 264.398 1273.21 261.746 1279.94 256.443C1286.76 251.045 1291.96 243.517 1295.56 233.858C1299.26 224.199 1301.1 212.883 1301.1 199.909C1301.1 186.936 1299.3 175.667 1295.7 166.102C1292.11 156.538 1286.9 149.152 1280.08 143.943C1273.26 138.735 1264.98 136.131 1255.22 136.131C1245.28 136.131 1236.9 138.83 1230.08 144.227C1223.26 149.625 1218.1 157.106 1214.6 166.67C1211.09 176.235 1209.34 187.314 1209.34 199.909C1209.34 212.598 1211.09 223.82 1214.6 233.574C1218.2 243.233 1223.36 250.809 1230.08 256.301C1236.9 261.699 1245.28 264.398 1255.22 264.398Z"/>
</mask>
<path d="M84.767 309L1.52841 18.0909H68.7159L116.869 220.222H119.284L172.409 18.0909H229.938L282.92 220.648H285.477L333.631 18.0909H400.818L317.58 309H257.636L202.239 118.801H199.966L144.71 309H84.767ZM432.601 309V90.8182H493.112V309H432.601ZM462.999 62.6932C454.002 62.6932 446.285 59.7102 439.845 53.7443C433.5 47.6837 430.328 40.4394 430.328 32.0114C430.328 23.678 433.5 16.5284 439.845 10.5625C446.285 4.50188 454.002 1.47158 462.999 1.47158C471.995 1.47158 479.665 4.50188 486.01 10.5625C492.449 16.5284 495.669 23.678 495.669 32.0114C495.669 40.4394 492.449 47.6837 486.01 53.7443C479.665 59.7102 471.995 62.6932 462.999 62.6932ZM540.449 309V272.92L647.267 140.676V139.114H544.142V90.8182H720.136V130.165L619.852 259.142V260.705H723.83V309H540.449ZM832.317 313.119C818.396 313.119 805.991 310.705 795.101 305.875C784.211 300.951 775.593 293.706 769.249 284.142C762.999 274.483 759.874 262.456 759.874 248.062C759.874 235.941 762.099 225.761 766.55 217.523C771 209.284 777.061 202.655 784.732 197.636C792.402 192.617 801.114 188.83 810.868 186.273C820.716 183.716 831.038 181.917 841.834 180.875C854.523 179.549 864.75 178.318 872.516 177.182C880.281 175.951 885.915 174.152 889.419 171.784C892.923 169.417 894.675 165.913 894.675 161.273V160.42C894.675 151.424 891.834 144.464 886.152 139.54C880.565 134.616 872.61 132.153 862.288 132.153C851.398 132.153 842.733 134.568 836.294 139.398C829.855 144.133 825.593 150.098 823.51 157.295L767.544 152.75C770.385 139.492 775.972 128.034 784.305 118.375C792.639 108.621 803.387 101.14 816.55 95.9318C829.807 90.6288 845.148 87.9773 862.572 87.9773C874.694 87.9773 886.294 89.3977 897.374 92.2386C908.548 95.0795 918.444 99.483 927.061 105.449C935.773 111.415 942.639 119.085 947.658 128.46C952.677 137.741 955.186 148.867 955.186 161.841V309H897.8V278.744H896.095C892.591 285.562 887.904 291.576 882.033 296.784C876.161 301.898 869.107 305.922 860.868 308.858C852.629 311.699 843.112 313.119 832.317 313.119ZM849.646 271.358C858.548 271.358 866.408 269.606 873.226 266.102C880.044 262.504 885.394 257.674 889.277 251.614C893.16 245.553 895.101 238.687 895.101 231.017V207.864C893.207 209.095 890.603 210.231 887.288 211.273C884.069 212.22 880.423 213.119 876.351 213.972C872.279 214.729 868.207 215.439 864.135 216.102C860.063 216.67 856.37 217.191 853.055 217.665C845.953 218.706 839.75 220.364 834.447 222.636C829.144 224.909 825.025 227.987 822.089 231.869C819.154 235.657 817.686 240.392 817.686 246.074C817.686 254.312 820.669 260.61 826.635 264.966C832.696 269.227 840.366 271.358 849.646 271.358ZM1002.13 309V90.8182H1060.8V128.886H1063.07C1067.05 115.345 1073.72 105.117 1083.1 98.2045C1092.47 91.197 1103.27 87.6932 1115.48 87.6932C1118.51 87.6932 1121.78 87.8826 1125.29 88.2614C1128.79 88.6402 1131.87 89.161 1134.52 89.8239V143.517C1131.68 142.665 1127.75 141.907 1122.73 141.244C1117.71 140.581 1113.12 140.25 1108.95 140.25C1100.05 140.25 1092.09 142.191 1085.09 146.074C1078.17 149.862 1072.68 155.165 1068.61 161.983C1064.63 168.801 1062.64 176.661 1062.64 185.562V309H1002.13ZM1236.05 312.551C1219.47 312.551 1204.46 308.29 1191.02 299.767C1177.66 291.15 1167.06 278.508 1159.2 261.841C1151.43 245.08 1147.55 224.53 1147.55 200.193C1147.55 175.193 1151.58 154.407 1159.62 137.835C1167.67 121.169 1178.38 108.716 1191.73 100.477C1205.17 92.1439 1219.9 87.9773 1235.9 87.9773C1248.12 87.9773 1258.3 90.0606 1266.44 94.2273C1274.68 98.2992 1281.31 103.413 1286.33 109.568C1291.44 115.629 1295.33 121.595 1297.98 127.466H1299.82V18.0909H1360.19V309H1300.53V274.057H1297.98C1295.14 280.117 1291.11 286.131 1285.9 292.097C1280.79 297.968 1274.11 302.845 1265.88 306.727C1257.73 310.61 1247.79 312.551 1236.05 312.551ZM1255.22 264.398C1264.98 264.398 1273.21 261.746 1279.94 256.443C1286.76 251.045 1291.96 243.517 1295.56 233.858C1299.26 224.199 1301.1 212.883 1301.1 199.909C1301.1 186.936 1299.3 175.667 1295.7 166.102C1292.11 156.538 1286.9 149.152 1280.08 143.943C1273.26 138.735 1264.98 136.131 1255.22 136.131C1245.28 136.131 1236.9 138.83 1230.08 144.227C1223.26 149.625 1218.1 157.106 1214.6 166.67C1211.09 176.235 1209.34 187.314 1209.34 199.909C1209.34 212.598 1211.09 223.82 1214.6 233.574C1218.2 243.233 1223.36 250.809 1230.08 256.301C1236.9 261.699 1245.28 264.398 1255.22 264.398Z" fill="url(#paint0_linear_738_14)"/>
<path d="M84.767 309L83.8056 309.275L84.0131 310H84.767V309ZM1.52841 18.0909V17.0909H0.202146L0.566992 18.366L1.52841 18.0909ZM68.7159 18.0909L69.6887 17.8592L69.5057 17.0909H68.7159V18.0909ZM116.869 220.222L115.897 220.453L116.08 221.222H116.869V220.222ZM119.284 220.222V221.222H120.055L120.251 220.476L119.284 220.222ZM172.409 18.0909V17.0909H171.638L171.442 17.8367L172.409 18.0909ZM229.938 18.0909L230.905 17.8378L230.71 17.0909H229.938V18.0909ZM282.92 220.648L281.953 220.901L282.148 221.648H282.92V220.648ZM285.477 220.648V221.648H286.267L286.45 220.879L285.477 220.648ZM333.631 18.0909V17.0909H332.841L332.658 17.8596L333.631 18.0909ZM400.818 18.0909L401.78 18.366L402.144 17.0909H400.818V18.0909ZM317.58 309V310H318.334L318.541 309.275L317.58 309ZM257.636 309L256.676 309.28L256.886 310H257.636V309ZM202.239 118.801L203.199 118.521L202.989 117.801H202.239V118.801ZM199.966 118.801V117.801H199.215L199.006 118.522L199.966 118.801ZM144.71 309V310H145.461L145.671 309.279L144.71 309ZM85.7285 308.725L2.48983 17.8158L0.566992 18.366L83.8056 309.275L85.7285 308.725ZM1.52841 19.0909H68.7159V17.0909H1.52841V19.0909ZM67.7431 18.3226L115.897 220.453L117.842 219.99L69.6887 17.8592L67.7431 18.3226ZM116.869 221.222H119.284V219.222H116.869V221.222ZM120.251 220.476L173.376 18.3451L171.442 17.8367L118.317 219.967L120.251 220.476ZM172.409 19.0909H229.938V17.0909H172.409V19.0909ZM228.97 18.344L281.953 220.901L283.888 220.395L230.905 17.8378L228.97 18.344ZM282.92 221.648H285.477V219.648H282.92V221.648ZM286.45 220.879L334.604 18.3222L332.658 17.8596L284.504 220.416L286.45 220.879ZM333.631 19.0909H400.818V17.0909H333.631V19.0909ZM399.857 17.8158L316.618 308.725L318.541 309.275L401.78 18.366L399.857 17.8158ZM317.58 308H257.636V310H317.58V308ZM258.596 308.72L203.199 118.521L201.279 119.081L256.676 309.28L258.596 308.72ZM202.239 117.801H199.966V119.801H202.239V117.801ZM199.006 118.522L143.75 308.721L145.671 309.279L200.926 119.08L199.006 118.522ZM144.71 308H84.767V310H144.71V308ZM432.601 309H431.601V310H432.601V309ZM432.601 90.8182V89.8182H431.601V90.8182H432.601ZM493.112 90.8182H494.112V89.8182H493.112V90.8182ZM493.112 309V310H494.112V309H493.112ZM439.845 53.7443L439.154 54.4674L439.16 54.4727L439.166 54.4779L439.845 53.7443ZM439.845 10.5625L440.53 11.291L440.531 11.2907L439.845 10.5625ZM486.01 10.5625L485.319 11.2856L485.325 11.2909L485.33 11.2961L486.01 10.5625ZM486.01 53.7443L486.695 54.4728L486.695 54.4725L486.01 53.7443ZM433.601 309V90.8182H431.601V309H433.601ZM432.601 91.8182H493.112V89.8182H432.601V91.8182ZM492.112 90.8182V309H494.112V90.8182H492.112ZM493.112 308H432.601V310H493.112V308ZM462.999 61.6932C454.247 61.6932 446.774 58.8007 440.525 53.0107L439.166 54.4779C445.795 60.6197 453.757 63.6932 462.999 63.6932V61.6932ZM440.536 53.0212C434.38 47.1406 431.328 40.1539 431.328 32.0114H429.328C429.328 40.7249 432.621 48.2268 439.154 54.4674L440.536 53.0212ZM431.328 32.0114C431.328 23.9676 434.376 17.0775 440.53 11.291L439.16 9.83398C432.625 15.9793 429.328 23.3884 429.328 32.0114H431.328ZM440.531 11.2907C446.781 5.40801 454.252 2.47158 462.999 2.47158V0.471576C453.753 0.471576 445.788 3.59576 439.16 9.8343L440.531 11.2907ZM462.999 2.47158C471.745 2.47158 479.166 5.40765 485.319 11.2856L486.701 9.83939C480.165 3.59612 472.245 0.471576 462.999 0.471576V2.47158ZM485.33 11.2961C491.578 17.0841 494.669 23.9728 494.669 32.0114H496.669C496.669 23.3832 493.321 15.9727 486.69 9.82894L485.33 11.2961ZM494.669 32.0114C494.669 40.1488 491.574 47.134 485.325 53.0161L486.695 54.4725C493.324 48.2334 496.669 40.73 496.669 32.0114H494.669ZM485.325 53.0158C479.172 58.801 471.75 61.6932 462.999 61.6932V63.6932C472.24 63.6932 480.158 60.6194 486.695 54.4728L485.325 53.0158ZM540.449 309H539.449V310H540.449V309ZM540.449 272.92L539.671 272.292L539.449 272.567V272.92H540.449ZM647.267 140.676L648.045 141.304L648.267 141.03V140.676H647.267ZM647.267 139.114H648.267V138.114H647.267V139.114ZM544.142 139.114H543.142V140.114H544.142V139.114ZM544.142 90.8182V89.8182H543.142V90.8182H544.142ZM720.136 90.8182H721.136V89.8182H720.136V90.8182ZM720.136 130.165L720.926 130.779L721.136 130.508V130.165H720.136ZM619.852 259.142L619.063 258.528L618.852 258.799V259.142H619.852ZM619.852 260.705H618.852V261.705H619.852V260.705ZM723.83 260.705H724.83V259.705H723.83V260.705ZM723.83 309V310H724.83V309H723.83ZM541.449 309V272.92H539.449V309H541.449ZM541.227 273.549L648.045 141.304L646.489 140.048L539.671 272.292L541.227 273.549ZM648.267 140.676V139.114H646.267V140.676H648.267ZM647.267 138.114H544.142V140.114H647.267V138.114ZM545.142 139.114V90.8182H543.142V139.114H545.142ZM544.142 91.8182H720.136V89.8182H544.142V91.8182ZM719.136 90.8182V130.165H721.136V90.8182H719.136ZM719.347 129.551L619.063 258.528L620.642 259.756L720.926 130.779L719.347 129.551ZM618.852 259.142V260.705H620.852V259.142H618.852ZM619.852 261.705H723.83V259.705H619.852V261.705ZM722.83 260.705V309H724.83V260.705H722.83ZM723.83 308H540.449V310H723.83V308ZM795.101 305.875L794.689 306.786L794.695 306.789L795.101 305.875ZM769.249 284.142L768.409 284.685L768.415 284.695L769.249 284.142ZM766.55 217.523L765.67 217.047L765.67 217.047L766.55 217.523ZM784.732 197.636L784.184 196.8L784.184 196.8L784.732 197.636ZM810.868 186.273L810.617 185.305L810.614 185.305L810.868 186.273ZM841.834 180.875L841.93 181.87L841.938 181.87L841.834 180.875ZM872.516 177.182L872.66 178.171L872.672 178.169L872.516 177.182ZM889.419 171.784L888.859 170.955L888.859 170.955L889.419 171.784ZM886.152 139.54L885.491 140.29L885.497 140.295L886.152 139.54ZM836.294 139.398L836.886 140.203L836.894 140.198L836.294 139.398ZM823.51 157.295L823.429 158.292L824.243 158.358L824.471 157.574L823.51 157.295ZM767.544 152.75L766.566 152.54L766.328 153.654L767.463 153.747L767.544 152.75ZM784.305 118.375L785.063 119.028L785.066 119.025L784.305 118.375ZM816.55 95.9318L816.918 96.8617L816.921 96.8603L816.55 95.9318ZM897.374 92.2386L897.125 93.2073L897.127 93.2078L897.374 92.2386ZM927.061 105.449L926.492 106.271L926.496 106.274L927.061 105.449ZM947.658 128.46L946.776 128.932L946.778 128.936L947.658 128.46ZM955.186 309V310H956.186V309H955.186ZM897.8 309H896.8V310H897.8V309ZM897.8 278.744H898.8V277.744H897.8V278.744ZM896.095 278.744V277.744H895.485L895.206 278.287L896.095 278.744ZM882.033 296.784L882.689 297.538L882.696 297.532L882.033 296.784ZM860.868 308.858L861.194 309.803L861.204 309.8L860.868 308.858ZM873.226 266.102L873.683 266.992L873.693 266.987L873.226 266.102ZM889.277 251.614L888.435 251.074L888.435 251.074L889.277 251.614ZM895.101 207.864H896.101V206.021L894.556 207.025L895.101 207.864ZM887.288 211.273L887.571 212.232L887.579 212.229L887.588 212.227L887.288 211.273ZM876.351 213.972L876.534 214.955L876.545 214.953L876.556 214.95L876.351 213.972ZM864.135 216.102L864.273 217.093L864.284 217.091L864.296 217.089L864.135 216.102ZM853.055 217.665L852.914 216.675L852.91 216.675L853.055 217.665ZM834.447 222.636L834.841 223.556L834.841 223.556L834.447 222.636ZM822.089 231.869L822.88 232.482L822.887 232.472L822.089 231.869ZM826.635 264.966L826.045 265.774L826.052 265.779L826.06 265.784L826.635 264.966ZM832.317 312.119C818.513 312.119 806.249 309.725 795.506 304.961L794.695 306.789C805.733 311.684 818.28 314.119 832.317 314.119V312.119ZM795.513 304.964C784.787 300.114 776.318 292.99 770.082 283.589L768.415 284.695C774.868 294.423 783.635 301.788 794.689 306.786L795.513 304.964ZM770.088 283.599C763.966 274.138 760.874 262.312 760.874 248.062H758.874C758.874 262.601 762.031 274.828 768.409 284.685L770.088 283.599ZM760.874 248.062C760.874 236.06 763.077 226.054 767.43 217.998L765.67 217.047C761.12 225.469 758.874 235.823 758.874 248.062H760.874ZM767.43 217.998C771.803 209.902 777.751 203.399 785.279 198.473L784.184 196.8C776.371 201.912 770.198 208.666 765.67 217.047L767.43 217.998ZM785.279 198.473C792.851 193.519 801.462 189.772 811.121 187.24L810.614 185.305C800.767 187.887 791.953 191.716 784.184 196.8L785.279 198.473ZM811.119 187.241C820.914 184.698 831.183 182.907 841.93 181.87L841.738 179.88C830.893 180.926 820.519 182.734 810.617 185.305L811.119 187.241ZM841.938 181.87C854.633 180.543 864.876 179.31 872.66 178.171L872.371 176.192C864.625 177.326 854.413 178.555 841.73 179.88L841.938 181.87ZM872.672 178.169C880.479 176.932 886.29 175.105 889.979 172.613L888.859 170.955C885.541 173.198 880.083 174.97 872.359 176.194L872.672 178.169ZM889.979 172.613C893.788 170.039 895.675 166.207 895.675 161.273H893.675C893.675 165.619 892.058 168.794 888.859 170.955L889.979 172.613ZM895.675 161.273V160.42H893.675V161.273H895.675ZM895.675 160.42C895.675 151.197 892.751 143.936 886.807 138.784L885.497 140.295C890.917 144.992 893.675 151.652 893.675 160.42H895.675ZM886.813 138.79C880.983 133.651 872.76 131.153 862.288 131.153V133.153C872.461 133.153 880.146 135.58 885.491 140.29L886.813 138.79ZM862.288 131.153C851.257 131.153 842.358 133.599 835.694 138.598L836.894 140.198C843.108 135.537 851.539 133.153 862.288 133.153V131.153ZM835.702 138.592C829.097 143.448 824.698 149.594 822.549 157.017L824.471 157.574C826.488 150.603 830.612 144.817 836.886 140.203L835.702 138.592ZM823.591 156.299L767.625 151.753L767.463 153.747L823.429 158.292L823.591 156.299ZM768.522 152.96C771.33 139.855 776.846 128.552 785.063 119.028L783.548 117.722C775.098 127.516 769.44 139.129 766.566 152.54L768.522 152.96ZM785.066 119.025C793.282 109.407 803.89 102.016 816.918 96.8617L816.182 95.0019C802.883 100.264 791.995 107.835 783.545 117.725L785.066 119.025ZM816.921 96.8603C830.038 91.6137 845.248 88.9773 862.572 88.9773V86.9773C845.048 86.9773 829.577 89.6439 816.178 95.0033L816.921 96.8603ZM862.572 88.9773C874.615 88.9773 886.132 90.3884 897.125 93.2073L897.622 91.27C886.457 88.407 874.772 86.9773 862.572 86.9773V88.9773ZM897.127 93.2078C908.197 96.0223 917.982 100.379 926.492 106.271L927.63 104.627C918.906 98.5865 908.898 94.1368 897.62 91.2695L897.127 93.2078ZM926.496 106.274C935.075 112.149 941.832 119.698 946.776 128.932L948.539 127.988C943.445 118.473 936.472 110.681 927.626 104.624L926.496 106.274ZM946.778 128.936C951.702 138.04 954.186 148.996 954.186 161.841H956.186C956.186 148.739 953.651 137.441 948.537 127.985L946.778 128.936ZM954.186 161.841V309H956.186V161.841H954.186ZM955.186 308H897.8V310H955.186V308ZM898.8 309V278.744H896.8V309H898.8ZM897.8 277.744H896.095V279.744H897.8V277.744ZM895.206 278.287C891.76 284.993 887.15 290.908 881.369 296.036L882.696 297.532C888.658 292.244 893.423 286.132 896.985 279.201L895.206 278.287ZM881.376 296.03C875.61 301.052 868.667 305.017 860.532 307.916L861.204 309.8C869.546 306.827 876.713 302.743 882.689 297.538L881.376 296.03ZM860.542 307.913C852.43 310.71 843.027 312.119 832.317 312.119V314.119C843.198 314.119 852.829 312.688 861.194 309.803L860.542 307.913ZM849.646 272.358C858.681 272.358 866.702 270.579 873.683 266.992L872.769 265.213C866.113 268.633 858.415 270.358 849.646 270.358V272.358ZM873.693 266.987C880.652 263.313 886.137 258.369 890.119 252.153L888.435 251.074C884.652 256.979 879.436 261.694 872.759 265.218L873.693 266.987ZM890.119 252.153C894.112 245.921 896.101 238.866 896.101 231.017H894.101C894.101 238.509 892.208 245.185 888.435 251.074L890.119 252.153ZM896.101 231.017V207.864H894.101V231.017H896.101ZM894.556 207.025C892.767 208.188 890.257 209.291 886.989 210.319L887.588 212.227C890.948 211.171 893.647 210.002 895.646 208.702L894.556 207.025ZM887.006 210.313C883.817 211.251 880.198 212.145 876.146 212.993L876.556 214.95C880.648 214.094 884.32 213.188 887.571 212.232L887.006 210.313ZM876.168 212.988C872.103 213.745 868.039 214.454 863.974 215.115L864.296 217.089C868.375 216.425 872.454 215.714 876.534 214.955L876.168 212.988ZM863.997 215.112C859.924 215.68 856.23 216.201 852.914 216.675L853.197 218.655C856.51 218.181 860.202 217.661 864.273 217.093L863.997 215.112ZM852.91 216.675C845.742 217.727 839.453 219.403 834.054 221.717L834.841 223.556C840.048 221.324 846.164 219.686 853.201 218.654L852.91 216.675ZM834.054 221.717C828.62 224.046 824.35 227.221 821.292 231.266L822.887 232.472C825.7 228.752 829.668 225.773 834.841 223.556L834.054 221.717ZM821.299 231.257C818.204 235.251 816.686 240.213 816.686 246.074H818.686C818.686 240.571 820.104 236.063 822.88 232.482L821.299 231.257ZM816.686 246.074C816.686 254.589 819.789 261.205 826.045 265.774L827.225 264.158C821.549 260.014 818.686 254.036 818.686 246.074H816.686ZM826.06 265.784C832.327 270.191 840.212 272.358 849.646 272.358V270.358C840.52 270.358 833.064 268.264 827.21 264.148L826.06 265.784ZM1002.13 309H1001.13V310H1002.13V309ZM1002.13 90.8182V89.8182H1001.13V90.8182H1002.13ZM1060.8 90.8182H1061.8V89.8182H1060.8V90.8182ZM1060.8 128.886H1059.8V129.886H1060.8V128.886ZM1063.07 128.886V129.886H1063.82L1064.03 129.168L1063.07 128.886ZM1083.1 98.2045L1083.69 99.0094L1083.7 99.0055L1083.1 98.2045ZM1125.29 88.2614L1125.39 87.2671L1125.39 87.2671L1125.29 88.2614ZM1134.52 89.8239H1135.52V89.0431L1134.76 88.8537L1134.52 89.8239ZM1134.52 143.517L1134.23 144.475L1135.52 144.861V143.517H1134.52ZM1085.09 146.074L1085.57 146.951L1085.57 146.949L1085.09 146.074ZM1068.61 161.983L1067.75 161.47L1067.75 161.479L1068.61 161.983ZM1062.64 309V310H1063.64V309H1062.64ZM1003.13 309V90.8182H1001.13V309H1003.13ZM1002.13 91.8182H1060.8V89.8182H1002.13V91.8182ZM1059.8 90.8182V128.886H1061.8V90.8182H1059.8ZM1060.8 129.886H1063.07V127.886H1060.8V129.886ZM1064.03 129.168C1067.96 115.791 1074.53 105.767 1083.69 99.0094L1082.5 97.3997C1072.92 104.468 1066.14 114.899 1062.11 128.605L1064.03 129.168ZM1083.7 99.0055C1092.89 92.1331 1103.47 88.6932 1115.48 88.6932V86.6932C1103.06 86.6932 1092.06 90.2609 1082.5 97.4036L1083.7 99.0055ZM1115.48 88.6932C1118.47 88.6932 1121.7 88.88 1125.18 89.2556L1125.39 87.2671C1121.86 86.8851 1118.56 86.6932 1115.48 86.6932V88.6932ZM1125.18 89.2556C1128.65 89.6308 1131.68 90.1449 1134.28 90.794L1134.76 88.8537C1132.05 88.1771 1128.93 87.6495 1125.39 87.2671L1125.18 89.2556ZM1133.52 89.8239V143.517H1135.52V89.8239H1133.52ZM1134.81 142.559C1131.89 141.685 1127.9 140.919 1122.86 140.253L1122.6 142.236C1127.6 142.896 1131.46 143.645 1134.23 144.475L1134.81 142.559ZM1122.86 140.253C1117.81 139.585 1113.17 139.25 1108.95 139.25V141.25C1113.07 141.25 1117.61 141.577 1122.6 142.236L1122.86 140.253ZM1108.95 139.25C1099.9 139.25 1091.77 141.226 1084.6 145.199L1085.57 146.949C1092.41 143.157 1100.2 141.25 1108.95 141.25V139.25ZM1084.61 145.197C1077.54 149.071 1071.91 154.5 1067.75 161.47L1069.47 162.496C1073.45 155.829 1078.81 150.652 1085.57 146.951L1084.61 145.197ZM1067.75 161.479C1063.67 168.469 1061.64 176.507 1061.64 185.562H1063.64C1063.64 176.815 1065.6 169.133 1069.47 162.487L1067.75 161.479ZM1061.64 185.562V309H1063.64V185.562H1061.64ZM1062.64 308H1002.13V310H1062.64V308ZM1191.02 299.767L1190.47 300.607L1190.48 300.612L1191.02 299.767ZM1159.2 261.841L1158.29 262.261L1158.29 262.267L1159.2 261.841ZM1159.62 137.835L1160.52 138.272L1160.53 138.27L1159.62 137.835ZM1191.73 100.477L1192.25 101.328L1192.25 101.327L1191.73 100.477ZM1266.44 94.2273L1265.99 95.1176L1266 95.1238L1266.44 94.2273ZM1286.33 109.568L1285.55 110.2L1285.56 110.207L1285.57 110.213L1286.33 109.568ZM1297.98 127.466L1297.07 127.877L1297.33 128.466H1297.98V127.466ZM1299.82 127.466V128.466H1300.82V127.466H1299.82ZM1299.82 18.0909V17.0909H1298.82V18.0909H1299.82ZM1360.19 18.0909H1361.19V17.0909H1360.19V18.0909ZM1360.19 309V310H1361.19V309H1360.19ZM1300.53 309H1299.53V310H1300.53V309ZM1300.53 274.057H1301.53V273.057H1300.53V274.057ZM1297.98 274.057V273.057H1297.34L1297.07 273.632L1297.98 274.057ZM1285.9 292.097L1285.15 291.439L1285.15 291.44L1285.9 292.097ZM1265.88 306.727L1265.45 305.823L1265.44 305.825L1265.88 306.727ZM1279.94 256.443L1280.56 257.228L1280.56 257.227L1279.94 256.443ZM1295.56 233.858L1294.63 233.501L1294.63 233.509L1295.56 233.858ZM1295.7 166.102L1296.64 165.75L1296.64 165.75L1295.7 166.102ZM1230.08 144.227L1229.46 143.443L1229.46 143.443L1230.08 144.227ZM1214.6 233.574L1213.66 233.912L1213.66 233.923L1214.6 233.574ZM1230.08 256.301L1229.45 257.076L1229.45 257.08L1229.46 257.085L1230.08 256.301ZM1236.05 311.551C1219.65 311.551 1204.83 307.339 1191.55 298.922L1190.48 300.612C1204.1 309.24 1219.29 313.551 1236.05 313.551V311.551ZM1191.56 298.927C1178.39 290.426 1167.9 277.939 1160.1 261.414L1158.29 262.267C1166.22 279.076 1176.94 291.873 1190.47 300.607L1191.56 298.927ZM1160.11 261.421C1152.42 244.826 1148.55 224.429 1148.55 200.193H1146.55C1146.55 224.631 1150.45 245.333 1158.29 262.261L1160.11 261.421ZM1148.55 200.193C1148.55 175.293 1152.56 154.668 1160.52 138.272L1158.73 137.398C1150.59 154.146 1146.55 175.093 1146.55 200.193H1148.55ZM1160.53 138.27C1168.51 121.744 1179.09 109.45 1192.25 101.328L1191.2 99.6262C1177.66 107.982 1166.84 120.593 1158.72 137.4L1160.53 138.27ZM1192.25 101.327C1205.54 93.0932 1220.08 88.9773 1235.9 88.9773V86.9773C1219.72 86.9773 1204.81 91.1947 1191.2 99.6273L1192.25 101.327ZM1235.9 88.9773C1248.01 88.9773 1258.02 91.043 1265.99 95.1175L1266.9 93.337C1258.57 89.0782 1248.23 86.9773 1235.9 86.9773V88.9773ZM1266 95.1238C1274.13 99.1422 1280.64 104.172 1285.55 110.2L1287.1 108.936C1281.98 102.654 1275.23 97.4563 1266.89 93.3308L1266 95.1238ZM1285.57 110.213C1290.63 116.219 1294.46 122.107 1297.07 127.877L1298.89 127.054C1296.19 121.082 1292.25 115.039 1287.09 108.923L1285.57 110.213ZM1297.98 128.466H1299.82V126.466H1297.98V128.466ZM1300.82 127.466V18.0909H1298.82V127.466H1300.82ZM1299.82 19.0909H1360.19V17.0909H1299.82V19.0909ZM1359.19 18.0909V309H1361.19V18.0909H1359.19ZM1360.19 308H1300.53V310H1360.19V308ZM1301.53 309V274.057H1299.53V309H1301.53ZM1300.53 273.057H1297.98V275.057H1300.53V273.057ZM1297.07 273.632C1294.28 279.595 1290.31 285.531 1285.15 291.439L1286.66 292.754C1291.92 286.731 1296 280.64 1298.88 274.481L1297.07 273.632ZM1285.15 291.44C1280.14 297.19 1273.58 301.989 1265.45 305.823L1266.3 307.632C1274.64 303.7 1281.44 298.745 1286.66 292.753L1285.15 291.44ZM1265.44 305.825C1257.47 309.627 1247.68 311.551 1236.05 311.551V313.551C1247.89 313.551 1257.99 311.593 1266.31 307.63L1265.44 305.825ZM1255.22 265.398C1265.17 265.398 1273.63 262.69 1280.56 257.228L1279.32 255.658C1272.8 260.803 1264.78 263.398 1255.22 263.398V265.398ZM1280.56 257.227C1287.54 251.697 1292.85 244.005 1296.5 234.207L1294.63 233.509C1291.08 243.029 1285.97 250.394 1279.32 255.659L1280.56 257.227ZM1296.5 234.215C1300.24 224.417 1302.1 212.975 1302.1 199.909H1300.1C1300.1 212.79 1298.27 223.981 1294.63 233.501L1296.5 234.215ZM1302.1 199.909C1302.1 186.846 1300.29 175.453 1296.64 165.75L1294.77 166.454C1298.32 175.88 1300.1 187.025 1300.1 199.909H1302.1ZM1296.64 165.75C1292.99 156.044 1287.68 148.491 1280.69 143.149L1279.47 144.738C1286.12 149.812 1291.22 157.032 1294.77 166.454L1296.64 165.75ZM1280.69 143.149C1273.67 137.789 1265.16 135.131 1255.22 135.131V137.131C1264.79 137.131 1272.85 139.681 1279.47 144.738L1280.69 143.149ZM1255.22 135.131C1245.09 135.131 1236.48 137.886 1229.46 143.443L1230.7 145.011C1237.32 139.773 1245.47 137.131 1255.22 137.131V135.131ZM1229.46 143.443C1222.47 148.974 1217.21 156.619 1213.66 166.326L1215.54 167.014C1218.99 157.593 1224.05 150.276 1230.7 145.011L1229.46 143.443ZM1213.66 166.326C1210.11 176.024 1208.34 187.224 1208.34 199.909H1210.34C1210.34 187.405 1212.08 176.446 1215.54 167.014L1213.66 166.326ZM1208.34 199.909C1208.34 212.689 1210.11 224.028 1213.66 233.912L1215.54 233.236C1212.08 223.612 1210.34 212.508 1210.34 199.909H1208.34ZM1213.66 233.923C1217.31 243.717 1222.56 251.451 1229.45 257.076L1230.71 255.527C1224.15 250.166 1219.08 242.749 1215.53 233.225L1213.66 233.923ZM1229.46 257.085C1236.48 262.642 1245.09 265.398 1255.22 265.398V263.398C1245.47 263.398 1237.32 260.755 1230.7 255.517L1229.46 257.085Z" fill="url(#paint1_linear_738_14)" mask="url(#path-1-outside-1_738_14)"/>
<defs>
<linearGradient id="paint0_linear_738_14" x1="690" y1="-78" x2="690" y2="307" gradientUnits="userSpaceOnUse">
<stop stop-color="#231F2B"/>
<stop offset="1" stop-color="#171226" stop-opacity="0"/>
</linearGradient>
<linearGradient id="paint1_linear_738_14" x1="690" y1="-78" x2="690" y2="307" gradientUnits="userSpaceOnUse">
<stop stop-color="#988EFF" stop-opacity="0.5"/>
<stop offset="1" stop-opacity="0"/>
</linearGradient>
</defs>
</svg>
